HIERARCHY
ROOT hip
{
	OFFSET 0.000000 0.000000 0.000000 
	CHANNELS 6 Xposition Yposition Zposition Zrotation Xrotation Yrotation
	JOINT abdomen
	{
		OFFSET 0.000000 3.402643 0.000000 
		CHANNELS 3 Zrotation Xrotation Yrotation
		JOINT chest
		{
			OFFSET 0.000000 8.438565 -0.680529 
			CHANNELS 3 Zrotation Xrotation Yrotation
			JOINT neck
			{
				OFFSET 0.000000 9.885400 -0.272212 
				CHANNELS 3 Zrotation Xrotation Yrotation
				JOINT head
				{
					OFFSET 0.000000 3.130431 0.000000 
					CHANNELS 3 Zrotation Xrotation Yrotation
					End Site
					{
						OFFSET 0.000000 3.039250 0.000000 
					}
				}
			}
			JOINT lCollar
			{
				OFFSET 3.238290 6.669187 -0.816635 
				CHANNELS 3 Zrotation Xrotation Yrotation
				JOINT lShldr
				{
					OFFSET 2.515050 0.000000 0.000000 
					CHANNELS 3 Zrotation Xrotation Yrotation
					JOINT lForeArm
					{
						OFFSET 11.517700 0.000000 0.000000 
						CHANNELS 3 Zrotation Xrotation Yrotation
						JOINT lHand
						{
							OFFSET 9.026700 0.000000 0.000000 
							CHANNELS 3 Zrotation Xrotation Yrotation
							End Site
							{
								OFFSET 4.028470 0.000000 0.000000 
							}
						}
					}
				}
			}
			JOINT rCollar
			{
				OFFSET -3.238290 6.669187 -0.816635 
				CHANNELS 3 Zrotation Xrotation Yrotation
				JOINT rShldr
				{
					OFFSET -2.515050 0.000000 0.000000 
					CHANNELS 3 Zrotation Xrotation Yrotation
					JOINT rForeArm
					{
						OFFSET -11.517700 0.000000 0.000000 
						CHANNELS 3 Zrotation Xrotation Yrotation
						JOINT rHand
						{
							OFFSET -9.026700 0.000000 0.000000 
							CHANNELS 3 Zrotation Xrotation Yrotation
							End Site
							{
								OFFSET -4.028470 0.000000 0.000000 
							}
						}
					}
				}
			}
		}
	}
	JOINT lThigh
	{
		OFFSET 4.983750 -1.633274 1.361059 
		CHANNELS 3 Zrotation Xrotation Yrotation
		JOINT lShin
		{
			OFFSET -2.041588 -20.007561 0.000000 
			CHANNELS 3 Zrotation Xrotation Yrotation
			JOINT lFoot
			{
				OFFSET 0.000000 -19.190928 -1.224953 
				CHANNELS 3 Zrotation Xrotation Yrotation
				End Site
				{
					OFFSET 0.000000 -2.449906 4.627600 
				}
			}
		}
	}
	JOINT rThigh
	{
		OFFSET -4.983750 -1.633274 1.361059 
		CHANNELS 3 Zrotation Xrotation Yrotation
		JOINT rShin
		{
			OFFSET 2.041588 -20.007561 0.000000 
			CHANNELS 3 Zrotation Xrotation Yrotation
			JOINT rFoot
			{
				OFFSET 0.000000 -19.190928 -1.224953 
				CHANNELS 3 Zrotation Xrotation Yrotation
				End Site
				{
					OFFSET 0.000000 -2.449906 4.627600 
				}
			}
		}
	}
}
MOTION
Frames: 18
Frame Time: 0.100000
0.000000 43.281670 0.000000 0.000000 0.000000 0.000000 0.000000 0.000000 0.000000 0.000000 0.000000 0.000000 0.000000 0.000000 0.000000 0.000000 0.000000 0.000000 0.000000 0.000000 0.000000 0.000000 0.000000 0.000000 0.000000 0.000000 0.000000 0.000000 0.000000 0.000000 0.000000 0.000000 0.000000 0.000000 0.000000 0.000000 0.000000 0.000000 0.000000 0.000000 0.000000 0.000000 0.000000 0.000000 0.000000 0.000000 0.000000 0.000000 0.000000 0.000000 0.000000 0.000000 0.000000 0.000000 0.000000 0.000000 0.000000 0.000000 0.000000 0.000000 
0.000000 0.000000 0.000000 0.020256 0.060003 0.020256 9.452786 2.772002 -0.283221 5.283261 0.621524 0.331602 0.506786 0.085925 0.020256 0.020256 0.060000 -24.722736 -23.700609 9.016581 -21.586346 -40.351940 14.597256 -24.060913 -0.685086 -9.753404 -34.686272 -6.999999 0.060000 0.020256 29.721012 5.491050 3.645041 46.804443 12.040131 -4.842205 4.907718 1.432213 26.679058 6.999999 0.060000 0.020256 7.908649 -19.525513 2.129996 9.852151 59.438400 -9.110152 5.580678 14.167145 0.848798 15.442093 -24.487736 -4.651828 7.897114 50.688515 -7.478529 -5.152123 17.144726 -0.154826 
-0.122533 0.160340 0.015472 -99.802292 0.000003 -0.000030 9.452786 2.712002 -0.283221 5.283261 0.561524 0.331602 0.506786 0.025925 -0.000126 0.000000 0.000000 -24.722736 -23.700609 8.956580 -21.586346 -40.351940 14.537255 -24.060913 -0.685086 -9.813404 -34.686272 -6.999999 0.000000 0.000000 29.721012 5.431050 3.645041 46.804443 11.980130 -4.842205 4.907718 1.372213 26.679058 6.999999 0.000000 0.000000 7.908649 -19.585512 2.129996 9.852151 59.378399 -9.110152 5.580678 14.107144 0.848798 15.442093 -24.547735 -4.651828 7.897114 50.628513 -7.478529 -5.152123 17.084726 -0.154826 
-0.122533 0.160340 0.015472 -99.802292 0.000003 -0.000030 9.451906 2.712423 -0.287650 5.282803 0.554730 0.336180 -0.006456 0.088012 0.007849 0.026904 0.074202 -24.701906 -23.708506 8.938799 -21.612843 -40.420490 14.543237 -23.811371 -0.769041 -9.807293 -35.178806 -8.043577 1.358883 0.000000 29.716421 5.434487 3.650594 46.748440 11.991769 -4.793375 4.881967 1.346339 26.641792 7.009033 0.021083 0.014056 7.908560 -19.586832 2.128808 9.845709 59.365784 -9.103374 5.580678 14.107145 0.848797 15.432042 -24.545982 -4.655796 7.871845 50.478382 -7.459018 -5.152123 17.084728 -0.154826 
-0.122533 0.160340 0.015472 -99.802292 0.000003 -0.000030 9.450439 2.713124 -0.295031 5.282039 0.543406 0.343810 -1.195231 0.187247 0.034645 0.104994 0.289568 -24.641855 -23.725840 8.909711 -21.664635 -40.605232 14.571061 -23.202967 -0.973454 -9.789524 -36.379005 -10.339450 4.348425 0.000000 29.703342 5.444300 3.666480 46.588928 12.024195 -4.654338 4.808490 1.273035 26.538921 7.035698 0.083459 0.055640 7.908306 -19.590683 2.125279 9.826682 59.328472 -9.083359 5.580678 14.107144 0.848798 15.403530 -24.541086 -4.667068 7.804474 50.071720 -7.407206 -5.152123 17.084726 -0.154826 
-0.122533 0.160340 0.015472 -99.802292 0.000003 -0.000030 9.450147 2.713264 -0.296507 5.281887 0.541141 0.345336 -2.533094 0.193087 0.076881 0.230342 0.635236 -24.546694 -23.742922 8.905635 -21.700157 -40.875748 14.636303 -22.445889 -1.227123 -9.761779 -37.870773 -12.635322 7.337968 0.000000 29.682827 5.459735 3.691548 46.338558 12.073632 -4.436260 4.692808 1.158946 26.383772 7.079259 0.185817 0.123879 7.907910 -19.596939 2.119468 9.795563 59.267246 -9.050621 5.580678 14.107144 0.848798 15.359028 -24.533613 -4.684685 7.708241 49.474102 -7.333739 -5.152123 17.084726 -0.154826 
-0.122533 0.160340 0.015472 -99.802292 0.000003 -0.000030 9.452786 2.712002 -0.283221 5.283261 0.561524 0.331602 -3.493585 -0.024455 0.118685 0.399047 1.100334 -24.421038 -23.749962 8.962816 -21.677889 -41.203079 14.757407 -21.750242 -1.459291 -9.731046 -39.238144 -13.678900 8.696851 0.000000 29.655907 5.480039 3.724648 46.009907 12.136271 -4.150289 4.540353 1.010814 26.189650 7.138878 0.326843 0.217901 7.907399 -19.605446 2.111430 9.752887 59.182865 -9.005726 5.580678 14.107144 0.848798 15.301012 -24.524092 -4.707690 7.596051 48.751102 -7.248930 -5.152123 17.084726 -0.154826 
-0.122533 0.160340 0.015472 -99.802292 0.000003 -0.000030 9.476248 2.700791 -0.165112 5.295500 0.742698 0.209474 -4.112258 -0.350347 0.157854 0.607250 1.673974 -24.269817 -23.748585 9.067902 -21.609016 -41.555798 14.915853 -21.149036 -1.932029 -9.474449 -40.438469 -13.678654 8.696530 -0.000000 29.623621 5.504450 3.764631 45.615582 12.208286 -3.807573 4.356612 0.835335 25.969868 7.213627 0.505226 0.336836 7.906796 -19.616068 2.101223 9.699239 59.076103 -8.949290 5.580678 14.107144 0.848797 15.231951 -24.513077 -4.735122 7.479552 47.968342 -7.161873 -5.152123 17.084726 -0.154826 
-0.122533 0.160340 0.015472 -99.802292 0.000003 -0.000030 9.505301 2.686909 -0.018822 5.387436 1.038535 0.048887 -4.763364 -0.603624 0.202540 0.851156 2.345247 -24.098141 -23.746868 9.182644 -21.532934 -41.920994 15.078843 -20.535975 -2.430938 -9.177828 -41.709850 -13.677917 8.695572 0.000000 29.587021 5.532215 3.810346 45.168247 12.285856 -3.419279 4.147222 0.639043 25.737740 7.302504 0.719647 0.479819 7.906124 -19.628662 2.088903 9.635229 58.947731 -8.881959 5.580679 14.107144 0.848797 15.154315 -24.501118 -4.766028 7.368776 47.191547 -7.080104 -5.152123 17.084726 -0.154826 
-0.122533 0.160340 0.015472 -99.802292 0.000003 -0.000030 9.535115 2.672665 0.130992 5.483449 1.343422 -0.116201 -5.428641 -0.814996 0.250341 1.127046 3.103214 -23.911133 -23.744976 9.305940 -21.450466 -42.297844 15.245787 -19.912422 -2.948516 -8.841072 -43.041615 -13.676694 8.693980 0.000000 29.547142 5.562578 3.860641 44.680702 12.365182 -2.996598 3.918046 0.428228 25.506641 7.404431 0.968787 0.645991 7.905408 -19.643082 2.074526 9.561514 58.798519 -8.804422 5.580678 14.107144 0.848798 15.070572 -24.488766 -4.799459 7.272187 46.486473 -7.009655 -5.152123 17.084726 -0.154826 
-0.122533 0.160340 0.015472 -99.802292 0.000003 -0.000030 9.565479 2.658160 0.283369 5.582667 1.654992 -0.284829 -6.089862 -1.015118 0.297820 1.431283 3.936908 -23.713837 -23.743046 9.436693 -21.362440 -42.685497 15.416080 -19.279739 -3.477409 -8.464663 -44.423130 -13.674989 8.691759 -0.000000 29.505032 5.594792 3.914362 44.165901 12.442509 -2.550751 3.675220 0.208865 25.289997 7.518284 1.251319 0.834500 7.904675 -19.659191 2.058150 9.478748 58.629211 -8.717373 5.580678 14.107144 0.848798 14.983190 -24.476583 -4.834468 7.197052 45.918941 -6.955430 -5.152123 17.084726 -0.154826 
-0.122533 0.160340 0.015472 -99.802292 0.000003 -0.000030 9.596185 2.643494 0.437351 5.684203 1.970882 -0.456005 -6.728854 -1.234557 0.340398 1.760305 4.835332 -23.511091 -23.741213 9.573801 -21.269688 -43.083092 15.589128 -18.639296 -4.010526 -8.049740 -45.843918 -13.672804 8.688914 0.000000 29.461740 5.628114 3.970351 43.636974 12.514135 -2.092999 3.425172 -0.013410 25.101305 7.642886 1.565912 1.044505 7.903945 -19.676853 2.039831 9.387612 58.440590 -8.621532 5.580678 14.107144 0.848798 14.894631 -24.465130 -4.870121 7.150026 45.554790 -6.921756 -5.152123 17.084726 -0.154826 
-0.122533 0.160340 0.015472 -99.802292 0.000003 -0.000030 9.627020 2.628767 0.591978 5.787172 2.288728 -0.628698 -7.327523 -1.503783 0.372443 2.110622 5.787468 -23.307447 -23.739601 9.716164 -21.173027 -43.489704 15.764337 -17.992456 -4.541131 -7.598142 -47.293625 -13.670144 8.685450 -0.000000 29.418316 5.661806 4.027447 43.107231 12.576423 -1.634641 3.174620 -0.233307 24.954113 7.777027 1.911225 1.275175 7.903244 -19.695915 2.019625 9.288795 58.233410 -8.517624 5.580679 14.107144 0.848797 14.807353 -24.454990 -4.905488 7.123877 45.349220 -6.902742 -5.152123 17.084726 -0.154826 
-0.122533 0.160340 0.015472 -99.802292 0.000003 -0.000030 9.657777 2.614080 0.746289 5.890681 2.606174 -0.801845 -7.867895 -1.853177 0.387541 2.478786 6.782280 -23.107079 -23.738317 9.862678 -21.073278 -43.904392 15.941113 -17.340626 -5.062949 -7.112421 -48.762127 -13.667009 8.681369 0.000000 29.375811 5.695140 4.084483 42.590141 12.625811 -1.187014 2.930542 -0.445849 24.862049 7.919468 2.285908 1.525693 7.902597 -19.716242 1.997591 9.182977 58.008427 -8.406373 5.580678 14.107144 0.848798 14.723822 -24.446737 -4.939647 7.106098 45.208164 -6.889106 -5.152123 17.084726 -0.154826 
-0.122533 0.160340 0.015472 -99.802292 0.000003 -0.000030 9.688244 2.599533 0.899324 5.993832 2.920867 -0.974342 -8.332176 -2.313090 0.378970 2.861364 7.808724 -22.913725 -23.737452 10.012238 -20.971254 -44.326164 16.118874 -16.685186 -5.570245 -6.595837 -50.239513 -13.663406 8.676678 0.000000 29.335283 5.727393 4.140289 42.099331 12.658808 -0.761488 2.700129 -0.646313 24.838793 8.068954 2.688604 1.795259 7.902027 -19.737690 1.973784 9.070836 57.766407 -8.288498 5.580678 14.107143 0.848798 14.646487 -24.440966 -4.971681 7.095504 45.123611 -6.880174 -5.152123 17.084724 -0.154826 
-0.122533 0.160340 0.015472 -99.802292 0.000003 -0.000030 9.718212 2.585226 1.050122 6.095717 3.230455 -1.145052 -8.702829 -2.913937 0.340351 3.254908 8.855765 -22.730629 -23.737074 10.163738 -20.867777 -44.754013 16.297037 -16.027540 -6.057908 -6.052334 -51.716129 -13.659339 8.671380 0.000000 29.297796 5.757850 4.193693 41.648518 12.672006 -0.369457 2.490715 -0.830128 24.898079 8.224220 3.117942 2.083085 7.901560 -19.760118 1.948262 8.953051 57.508129 -8.164716 5.580678 14.107144 0.848798 14.577809 -24.438261 -5.000679 7.091001 45.087555 -6.875357 -5.152123 17.084726 -0.154826 
-0.122533 0.160340 0.015472 -99.802292 0.000003 -0.000030 9.747471 2.571259 1.197721 6.195421 3.532594 -1.312799 -8.962650 -3.686350 0.266474 3.655905 9.912393 -22.560507 -23.737242 10.316073 -20.763649 -45.186863 16.475027 -15.369105 -6.521516 -5.486488 -53.182594 -13.654808 8.665481 0.000000 29.264414 5.785802 4.243515 41.251484 12.662047 -0.022324 2.309682 -0.992747 25.053658 8.383996 3.572541 2.388404 7.901218 -19.783386 1.921081 8.830266 57.234333 -8.035716 5.580678 14.107143 0.848798 14.520240 -24.439226 -5.025731 7.091551 45.091969 -6.874118 -5.152123 17.084724 -0.154826 
-0.122533 0.160340 0.015472 -99.802292 0.000003 -0.000030 9.775810 2.557733 1.341159 6.292022 3.824943 -1.476375 -9.094818 -4.661340 0.154314 4.060742 10.967626 -22.405489 -23.737974 10.468129 -20.659678 -45.623627 16.652285 -14.711302 -6.957383 -4.903455 -54.629757 -13.649819 8.658984 0.000000 29.236202 5.810542 4.288577 40.921963 12.625625 0.268512 2.164349 -1.129481 25.319311 8.547021 4.051007 2.710464 7.901028 -19.807348 1.892299 8.703120 56.945797 -7.902175 5.580678 14.107145 0.848797 14.476234 -24.444458 -5.045924 7.096155 45.128815 -6.875959 -5.152123 17.084726 -0.154826 
